<?xml version="1.0" encoding="UTF-8"?>
<svg version="1.1" xmlns="http://www.w3.org/2000/svg" width="1354" height="1052">
<path d="M0 0 C22.44 0 44.88 0 68 0 C68.391875 6.105 68.78375 12.21 69.1875 18.5 C71.81967472 55.79235488 78.8303144 91.58704439 91 127 C91.31549805 127.92828613 91.63099609 128.85657227 91.95605469 129.81298828 C97.12617719 144.91885398 103.35221955 159.4905365 110 174 C110.44746582 174.98145996 110.89493164 175.96291992 111.35595703 176.97412109 C118.14053469 191.77119815 125.79527859 205.94702181 134 220 C134.73867835 221.28290546 135.47710612 222.56595523 136.21533203 223.84912109 C142.34744726 234.45430678 148.92374431 244.70525278 155.75 254.875 C156.27402405 255.65859894 156.7980481 256.44219788 157.33795166 257.24954224 C165.24991984 269.07444069 173.33153937 280.71318928 182 292 C182.92750035 293.22103751 183.85459529 294.4423831 184.78125 295.6640625 C189.75091547 302.19139802 194.83562757 308.62586316 200 315 C201.04414062 316.28970703 201.04414062 316.28970703 202.109375 317.60546875 C211.39232724 329.01164943 220.976199 340.16359783 230.55712891 351.31933594 C233.03992675 354.21131231 235.51988832 357.10572001 238 360 C278.86160226 287.05769298 287.72939381 197.48690652 265.12768555 117.29199219 C262.04699264 106.79348285 258.51499377 96.50906725 254.43798828 86.35498047 C254.11813965 85.55721191 253.79829102 84.75944336 253.46875 83.9375 C253.04239258 82.89916016 253.04239258 82.89916016 252.60742188 81.83984375 C252 80 252 80 252 77 C263.81302558 77.52785705 275.45458101 79.39690075 287.12329102 81.21875 C289.43077358 81.57518374 291.73974884 81.92207529 294.05004883 82.25976562 C297.41318078 82.75150293 300.77098089 83.27089408 304.12890625 83.796875 C305.16116837 83.94292175 306.19343048 84.08896851 307.25697327 84.23944092 C314.36068058 85.39942174 314.36068058 85.39942174 317.59057617 88.43359375 C319.33779197 91.61508214 320.64301105 94.80549785 321.75 98.25 C321.9967749 99.00667969 322.2435498 99.76335937 322.49780273 100.54296875 C326.76259963 114.14003689 329.87068854 128.10613409 333 142 C333.38551025 143.71050537 333.38551025 143.71050537 333.77880859 145.45556641 C339.71118503 172.41753616 342.66768231 200.40252612 343 228 C343.01321289 228.97211426 343.02642578 229.94422852 343.04003906 230.94580078 C343.53431002 300.30490979 328.33091083 373.28677944 290 432 C293.29436051 438.17681961 296.90111054 443.9937219 300.90234375 449.734375 C302.05845461 451.40948891 303.21454094 453.08461975 304.37060547 454.75976562 C304.96717957 455.62093994 305.56375366 456.48211426 306.17840576 457.36938477 C354 526.42988775 354 526.42988775 354 543 C368.85 543 383.7 543 399 543 C400.485 537.555 400.485 537.555 402 532 C403.02848185 529.31678251 404.06932688 526.73346386 405.25 524.125 C405.51167969 523.52042969 405.77335938 522.91585937 406.04296875 522.29296875 C411.85429643 509.19739624 419.48532443 497.4472849 427.47088623 485.60754395 C429.34017106 482.83394232 431.1997437 480.05404297 433.05712891 477.27246094 C438.16710932 469.62815732 443.28782754 461.99323753 448.53440857 454.44180298 C450.26460108 451.95059136 451.981744 449.45053199 453.6980896 446.94976807 C454.84891845 445.28766861 456.02250184 443.64139768 457.1965332 441.99560547 C457.87159912 441.01221191 458.54666504 440.02881836 459.2421875 439.015625 C459.8285498 438.18321289 460.41491211 437.35080078 461.01904297 436.49316406 C462.28274896 433.95795798 462.28274896 433.95795798 461.34716797 430.98486328 C460.11248641 428.24923139 458.80178852 425.76334169 457.203125 423.2265625 C410.72236418 347.75870902 400.06452766 249.70179294 421 133 C421.22490112 132.00495453 421.22490112 132.00495453 421.4543457 130.98980713 C430.52516369 91.08288366 430.52516369 91.08288366 437 86 C439.68188477 85.26391602 439.68188477 85.26391602 442.94140625 84.75390625 C444.75886353 84.46036255 444.75886353 84.46036255 446.61303711 84.16088867 C447.91635986 83.96342041 449.21968262 83.76595215 450.5625 83.5625 C451.90974043 83.35033986 453.25682604 83.13719437 454.60375977 82.9230957 C457.36924557 82.48570656 460.13574908 82.05582436 462.90332031 81.63183594 C466.77987169 81.03693889 470.65181795 80.41530853 474.5234375 79.7890625 C476.82800372 79.42111457 479.13268574 79.05389099 481.4375 78.6875 C482.50105713 78.51613525 483.56461426 78.34477051 484.66040039 78.16821289 C489.84051516 77.36461114 494.7576376 76.80092295 500 77 C499.35911598 80.68873637 498.33917428 83.99651048 496.99609375 87.48828125 C487.28795617 113.29533079 480.39822039 139.5873802 477 167 C476.88430664 167.92441895 476.76861328 168.84883789 476.64941406 169.80126953 C469.12767083 232.99953649 480.43245055 305.24805197 514 360 C514.60134766 359.30777344 514.60134766 359.30777344 515.21484375 358.6015625 C518.56287048 354.76006244 521.94450729 350.95561589 525.375 347.1875 C529.2704657 342.87090287 532.96858218 338.4259887 536.625 333.90625 C538.71638588 331.34705412 540.84067364 328.8240847 542.98754883 326.31176758 C548.63992767 319.69461529 554.09076227 312.94545079 559.41015625 306.05810547 C560.53281016 304.60479274 561.65806107 303.15348436 562.78515625 301.70361328 C577.46414585 282.80102323 591.32800331 263.30899718 604 243 C604.95326172 241.47463623 604.95326172 241.47463623 605.92578125 239.91845703 C615.16950526 225.06461574 623.91919419 210.09502828 631.77001953 194.4453125 C632.86041576 192.2775061 633.96951124 190.12118271 635.08984375 187.96875 C646.2340783 166.40542908 655.33736673 144.01538909 663 121 C663.49258301 119.52418457 663.49258301 119.52418457 663.99511719 118.01855469 C676.76912459 79.21600556 681.30698116 40.52993358 684 0 C706.44 0 728.88 0 752 0 C752 33.08888007 752 33.08888007 750.875 45.8125 C750.81097992 46.56738708 750.74695984 47.32227417 750.68099976 48.10003662 C743.61498766 130.24785243 717.48123972 209.42433576 675 280 C674.46890625 280.88606934 673.9378125 281.77213867 673.390625 282.68505859 C671.91212736 285.14782124 670.42727461 287.60654496 668.9375 290.0625 C668.50880615 290.77003418 668.0801123 291.47756836 667.63842773 292.20654297 C664.93653387 296.61346367 662.04673058 300.82364382 659 305 C697.77810623 292.56999755 733.89635994 272.26529605 765 246 C766.04117035 245.14522843 767.08285875 244.29108758 768.125 243.4375 C782.3328819 231.67241337 795.72811866 218.61954535 807 204 C807.89741094 202.91106018 808.79872765 201.82533189 809.703125 200.7421875 C822.0625021 185.84149567 832.36992808 169.57330832 841.91381836 152.75561523 C842.42178955 151.87075439 842.92976074 150.98589355 843.453125 150.07421875 C843.89817383 149.28619873 844.34322266 148.49817871 844.80175781 147.6862793 C845.19717773 147.12980713 845.59259766 146.57333496 846 146 C846.66 146 847.32 146 848 146 C849.4083955 148.07223753 850.67988549 150.13054237 851.9296875 152.296875 C852.31658752 152.95373291 852.70348755 153.61059082 853.10211182 154.28735352 C854.36668055 156.43758121 855.62090537 158.5936495 856.875 160.75 C857.73608627 162.2195036 858.5979042 163.68857872 859.46044922 165.15722656 C860.75392885 167.35975398 862.04690702 169.56255471 863.33706665 171.76702881 C865.82225005 176.01086618 868.33596238 180.23493067 870.890625 184.4375 C871.44637207 185.35176758 872.00211914 186.26603516 872.57470703 187.20800781 C873.58255712 188.86056452 874.59377012 190.5110766 875.60888672 192.15917969 C876.27041748 193.24827637 876.27041748 193.24827637 876.9453125 194.359375 C877.51016357 195.27928223 877.51016357 195.27928223 878.08642578 196.21777344 C879.45152076 198.88083954 880.18385471 201.05130971 879.609375 204.015625 C874.05046452 218.46879224 862.98529899 230.89657533 853.5625 242.9921875 C852.09727041 244.87500752 850.64132805 246.76462146 849.1875 248.65625 C834.22258318 268.03518169 817.69538217 287.2525803 799.07421875 303.203125 C796.79842282 305.1746243 794.59077333 307.21134395 792.375 309.25 C786.17016273 314.83341199 779.63462611 319.94489374 773 325 C772.2972998 325.53786133 771.59459961 326.07572266 770.87060547 326.62988281 C752.9050965 340.32052601 733.99365131 352.48588974 714 363 C713.11151367 363.47147461 712.22302734 363.94294922 711.30761719 364.42871094 C695.97085117 372.51536938 680.33855046 379.20709306 664 385 C663.16726563 385.29600098 662.33453125 385.59200195 661.4765625 385.89697266 C651.51996916 389.37298031 641.34518595 392.04447224 631.125 394.625 C629.89031982 394.95169678 628.65563965 395.27839355 627.38354492 395.61499023 C620.9760375 397.20704343 615.32227028 398.15738881 608.7109375 397.8203125 C600.18990141 397.57644252 591.72823633 397.59514155 585.17321777 403.70184326 C575.65384909 414.18838488 568.68388699 426.95366813 561.53027344 439.09570312 C556.70721425 447.24392347 551.43447339 455.08235763 546.16433716 462.94528198 C543.37661282 467.11968666 540.62917802 471.32039777 537.87890625 475.51953125 C531.04687766 485.93531718 524.19522585 496.33813003 517.33984375 506.73855591 C515.49816419 509.53295365 513.65721562 512.3278317 511.81640625 515.12280273 C510.66798859 516.86573573 509.51955159 518.60865598 508.37109375 520.3515625 C507.82271851 521.18445297 507.27434326 522.01734344 506.70935059 522.87547302 C504.18837353 526.70024382 501.65779019 530.51756236 499.09570312 534.31494141 C492.89933821 543.44538833 492.89933821 543.44538833 487.625 553.125 C487.30394287 553.77968262 486.98288574 554.43436523 486.65209961 555.10888672 C478.1732502 572.90261947 476.83465661 590.30690407 483 609 C488.22728098 623.30690204 496.7467358 635.64516421 505.32861328 648.10742188 C510.21028006 655.2057627 515.01421761 662.35727702 519.83166504 669.49926758 C521.07530342 671.34259766 522.31953154 673.18553 523.56433105 675.02807617 C533.58250552 689.85696137 543.46903625 704.76804337 553.290802 719.72756958 C563.79710853 735.72479623 574.45378758 751.6162326 585.19726562 767.45507812 C590.6153477 775.44840484 596.00260671 783.45934987 601.2734375 791.55078125 C601.73835602 792.2603447 602.20327454 792.96990814 602.68228149 793.70097351 C604.45808931 796.44462296 605.96190249 798.88570747 607 802 C594.02208365 802.3483605 581.04528796 802.61446983 568.06363964 802.77718258 C562.03463718 802.8553022 556.00884433 802.96113943 549.98168945 803.1315918 C544.15881965 803.29522617 538.33902462 803.38438821 532.51403236 803.42315865 C530.29813533 803.45076419 528.08239713 803.50468147 525.86781883 803.58595085 C509.00684881 804.17979421 509.00684881 804.17979421 504.01987457 800.56452179 C500.62212465 797.10858432 498.23717496 793.21215102 496.02634716 788.9245348 C494.39746824 785.87017437 492.41034984 783.1104485 490.4296875 780.2734375 C489.68141339 779.15050726 488.93601414 778.02565156 488.19458008 776.89819336 C485.68188783 773.08094913 483.15652675 769.27221675 480.62890625 765.46484375 C480.17551376 764.78134354 479.72212128 764.09784332 479.25498962 763.39363098 C473.82114059 755.20990286 468.31738138 747.07353968 462.8125 738.9375 C461.76342062 737.38639804 460.71434838 735.83529125 459.6652832 734.28417969 C457.53441652 731.1340068 455.40309501 727.98414219 453.27148438 724.83447266 C448.23791206 717.39662266 443.20769096 709.95650796 438.17855835 702.51565552 C436.61858791 700.20797156 435.057986 697.9007157 433.49731445 695.59350586 C431.11773103 692.07479147 428.74217316 688.55338809 426.36911011 685.03027344 C425.45199816 683.67027469 424.53346578 682.31123279 423.61355591 680.953125 C413.82226936 666.49632621 413.82226936 666.49632621 409.8125 658.75 C409.40523682 657.97132568 408.99797363 657.19265137 408.57836914 656.39038086 C403.67342345 646.75301558 399.62511496 636.50045983 397 626 C383.47 626 369.94 626 356 626 C353.03 634.91 353.03 634.91 350 644 C348.58141364 647.39644619 347.17952872 650.65244166 345.5625 653.9375 C345.21896484 654.67033203 344.87542969 655.40316406 344.52148438 656.15820312 C338.59495325 668.47209872 330.276239 679.59091663 322.625 690.875 C321.51741724 692.5109588 320.40999872 694.1470288 319.30273438 695.78320312 C317.00746857 699.17458251 314.71150452 702.56548754 312.41503906 705.95605469 C307.61780531 713.03998232 302.82924077 720.12976319 298.04052734 727.2194519 C296.49731724 729.50397147 294.9537935 731.7882788 293.41015625 734.07250977 C288.58993875 741.20538268 283.77068857 748.33890426 278.95452881 755.47451782 C276.7162046 758.79069832 274.47738204 762.10654223 272.23852539 765.42236328 C271.18635786 766.9809531 270.13442597 768.53970203 269.08276367 770.09863281 C263.69328006 778.08760509 258.28730605 786.0648058 252.8359375 794.01171875 C252.36443268 794.70030472 251.89292786 795.38889069 251.40713501 796.0983429 C248.11919405 800.88080595 248.11919405 800.88080595 247 802 C243.86440114 802.09534958 240.75086387 802.12550879 237.61499023 802.11352539 C236.13710526 802.11374443 236.13710526 802.11374443 234.62936401 802.1139679 C231.35575193 802.11326832 228.08219596 802.10547385 224.80859375 802.09765625 C222.54557832 802.09579223 220.28256249 802.09436825 218.01954651 802.09336853 C212.05021052 802.0895421 206.08089868 802.07971075 200.11157227 802.06866455 C194.02555671 802.05845312 187.93953727 802.05387149 181.85351562 802.04882812 C169.90233311 802.03808859 157.95116856 802.02101068 146 802 C150.10132197 793.5843317 150.10132197 793.5843317 152.65600586 789.84277344 C153.38780312 788.76271027 153.38780312 788.76271027 154.13438416 787.66082764 C154.65593582 786.90134827 155.17748749 786.1418689 155.71484375 785.359375 C156.27357681 784.53657043 156.83230988 783.71376587 157.40797424 782.86602783 C158.61506482 781.08887023 159.82419346 779.31309554 161.03515625 777.53857422 C164.32524118 772.71576235 167.59833878 767.88145729 170.87109375 763.046875 C171.54768036 762.04781128 172.22426697 761.04874756 172.9213562 760.01940918 C179.87216494 749.73939877 186.69250527 739.37522555 193.5 729 C202.58804974 715.15624746 211.75616591 701.37163832 221.03604126 687.65567017 C234.74938178 667.38903228 234.74938178 667.38903228 248.33526611 647.03689575 C249.29637505 645.5896729 250.26053275 644.14446859 251.22821045 642.70162964 C264.84253554 622.38712603 277.72371517 599.58286257 272.875 574.3125 C270.2743585 563.25380887 266.11368755 553.44295603 260.1640625 543.828125 C259.68881134 543.05581543 259.21356018 542.28350586 258.72390747 541.48779297 C253.29984213 532.75467371 247.53664185 524.25229376 241.7512207 515.75613403 C238.51984403 511.00930057 235.30326289 506.25245741 232.0859375 501.49609375 C231.4579425 500.56816513 230.82994751 499.64023651 230.18292236 498.68418884 C225.56151053 491.84880814 220.99671241 484.98074411 216.5 478.0625 C215.87947754 477.10786865 215.25895508 476.1532373 214.61962891 475.16967773 C213.96655762 474.16493408 213.31348633 473.16019043 212.640625 472.125 C206.85436364 463.22469735 201.01689004 454.35805535 195.1784668 445.49191284 C193.91815027 443.57744513 192.65851795 441.66252677 191.3996582 439.74710083 C188.43932822 435.24292944 185.46881782 430.74645952 182.47436523 426.26489258 C180.11194064 422.72003784 177.83673133 419.1354433 175.60571289 415.5065918 C174.50418387 413.76994667 173.40254459 412.03337148 172.30078125 410.296875 C171.82840027 409.49314957 171.35601929 408.68942413 170.86932373 407.86134338 C167.95313114 403.34998298 165.78357991 401.52288852 160.46826172 400.34521484 C156.5344257 399.78216979 152.62006325 399.42061389 148.64453125 399.3671875 C141.61865453 399.08953437 134.97897501 397.82942567 128.125 396.3125 C126.95565918 396.05605713 125.78631836 395.79961426 124.58154297 395.53540039 C95.57894325 388.95261289 68.52641405 378.27874031 42 365 C41.14132324 364.57460938 40.28264648 364.14921875 39.39794922 363.7109375 C13.90227902 351.0219425 -9.36432589 334.61240791 -31.23388672 316.45751953 C-32.86464981 315.11170039 -34.50784417 313.78405815 -36.16015625 312.46484375 C-41.09908963 308.50418604 -45.70457813 304.43346716 -50.11328125 299.890625 C-51.96484998 298.03522279 -53.88253673 296.32714427 -55.875 294.625 C-62.84314451 288.61514648 -69.26255349 282.03163904 -75.23828125 275.0390625 C-77.19605739 272.7730777 -79.22228948 270.57856506 -81.25 268.375 C-86.27716428 262.79679748 -90.86811216 256.92562668 -95.45507812 250.98632812 C-97.08539051 248.8902122 -98.73609456 246.81141829 -100.390625 244.734375 C-108.49699151 234.51359695 -116.02541695 224.02693214 -123 213 C-123.4031543 212.40880371 -123.80630859 211.81760742 -124.22167969 211.20849609 C-126.44694545 207.75748141 -127.8481009 204.53809959 -127.61035156 200.37548828 C-126.11864369 194.56976124 -122.49710503 189.49688969 -119.375 184.4375 C-118.60336968 183.15888072 -117.83328374 181.87932822 -117.06469727 180.59887695 C-115.10968167 177.35112096 -113.13448029 174.11619068 -111.15301514 170.88452148 C-109.34203206 167.92459805 -107.54873084 164.95412493 -105.75390625 161.984375 C-102.52153697 156.64455258 -99.26976256 151.31700029 -96 146 C-91.62056983 147.45981006 -90.70021078 150.86036302 -88.6875 154.75 C-80.26802221 170.43810314 -70.16553865 185.14328024 -59 199 C-58.27683594 199.91523438 -57.55367188 200.83046875 -56.80859375 201.7734375 C-44.64998068 216.95539085 -30.96477272 231.82029503 -15.67578125 243.87890625 C-12.9033404 246.07662214 -10.240784 248.37630947 -7.5625 250.6875 C21.81490876 275.0620978 56.19312102 292.30660645 92 305 C90.54496244 301.95535241 88.87507885 299.14617121 87.05078125 296.30859375 C39.61657341 221.90262506 9.73769719 138.65087292 1.25 46 C1.18470093 45.30496368 1.11940186 44.60992737 1.05212402 43.89382935 C-0.30330148 29.20097334 0 14.85522333 0 0 Z " fill="#3C7552" transform="translate(302,233)"/>
<path d="M0 0 C3.51919526 2.4009463 6.56132534 5.14077795 9.6328125 8.0859375 C10.62631714 9.0308606 10.62631714 9.0308606 11.63989258 9.99487305 C42.50208282 39.61138697 64.55102133 80.44601601 65.77194214 123.94296265 C65.82131723 126.8403886 65.83219716 129.73647411 65.82348633 132.63427734 C65.82030475 134.84131408 65.84397922 137.04703156 65.86914062 139.25390625 C65.94867572 157.21466262 60.80067212 173.85736337 48.4453125 187.3359375 C31.59351903 202.94918045 11.63745831 206.60944287 -10.68261719 205.88574219 C-27.90538299 204.81418324 -42.96071334 196.10040825 -54.4921875 183.7109375 C-69.10896375 166.46099199 -70.86660715 144.4628575 -69.28125 122.83300781 C-66.3720699 89.45457405 -54.82650724 58.34684238 -34.4921875 31.7109375 C-33.46544922 30.34582031 -33.46544922 30.34582031 -32.41796875 28.953125 C-27.77951699 23.03357704 -22.65524437 17.67482944 -17.3671875 12.3359375 C-16.69800293 11.65740723 -16.02881836 10.97887695 -15.33935547 10.27978516 C-4.4712742 -0.51861174 -4.4712742 -0.51861174 0 0 Z " fill="#3C7552" transform="translate(336.4921875,5.2890625)"/>
<path d="M0 0 C4.9619081 2.87189226 8.89833755 7.04654751 13.01269531 10.99414062 C14.45704025 12.37631476 15.91916751 13.73984264 17.3828125 15.1015625 C48.24134729 44.61842187 65.43889189 88.3404457 66.78125 130.6328125 C67.10995496 152.34199539 63.12917656 171.37734013 47.828125 187.6796875 C32.57675629 202.1992247 13.70207925 206.15723182 -6.6015625 205.8046875 C-25.12859531 205.08168134 -41.15094593 197.20833152 -54.046875 183.9921875 C-57.17934455 180.22134738 -59.43728766 176.08226635 -61.671875 171.7421875 C-62.0013916 171.11119141 -62.3309082 170.48019531 -62.67041016 169.83007812 C-68.1845031 158.58189262 -68.93219347 147.22484567 -68.796875 134.9296875 C-68.79222229 134.17829498 -68.78756958 133.42690247 -68.78277588 132.65274048 C-68.69859861 121.05339074 -68.17950251 109.79771701 -65.421875 98.4921875 C-65.22319824 97.66541504 -65.02452148 96.83864258 -64.81982422 95.98681641 C-56.91123642 64.06218746 -41.18956446 37.09239979 -18.421875 13.4921875 C-17.78636719 12.81671875 -17.15085937 12.14125 -16.49609375 11.4453125 C-13.42647309 8.25572965 -10.17171607 5.29386183 -6.796875 2.4296875 C-6.08273437 1.81996094 -5.36859375 1.21023437 -4.6328125 0.58203125 C-2.421875 -0.5078125 -2.421875 -0.5078125 0 0 Z " fill="#3C7552" transform="translate(1022.421875,5.5078125)"/>
<path d="M0 0 C1 1 1 1 1.0546875 3.7890625 C-0.63858006 39.93664387 -15.32575039 71.85863284 -40 98 C-40.62261719 98.67546875 -41.24523438 99.3509375 -41.88671875 100.046875 C-55.34202122 114.15096564 -71.46773222 124.6338583 -91 127 C-92.10214844 127.13535156 -92.10214844 127.13535156 -93.2265625 127.2734375 C-107.59386464 128.06822443 -121.88408533 121.38350916 -132.6171875 112.32421875 C-145.0283435 100.21825511 -152.15968115 84.47001884 -152.4375 67.125 C-152.30467509 52.05116769 -146.7287001 39.86283914 -136.5 28.9375 C-101.09505098 -4.80951334 -45.69394776 -12.95129071 0 0 Z " fill="#3B7452" transform="translate(1322,290)"/>
<path d="M0 0 C8.94428283 7.95234169 15.55009837 21.0728614 16.88671875 32.94140625 C17.55259388 50.92003477 12.91303991 66.71057976 0.8125 80.25 C-4.15503119 85.58540206 -9.55093752 89.55857204 -16 93 C-16.74894531 93.40863281 -17.49789062 93.81726563 -18.26953125 94.23828125 C-30.56358463 100.32992932 -45.22370909 100.3065026 -58.1875 96.375 C-69.20365365 92.2550176 -78.19595503 85.66469797 -87 78 C-87.8559375 77.278125 -88.711875 76.55625 -89.59375 75.8125 C-95.82927083 70.42377829 -100.99010286 64.53108409 -106 58 C-106.66773437 57.14792969 -107.33546875 56.29585938 -108.0234375 55.41796875 C-124.56861092 33.60842197 -136.37738716 5.21007042 -136.0625 -22.5 C-136.05347656 -23.5415625 -136.04445312 -24.583125 -136.03515625 -25.65625 C-136.02355469 -26.4296875 -136.01195312 -27.203125 -136 -28 C-88.5900633 -40.50505373 -37.84583713 -32.55383448 0 0 Z " fill="#3B7452" transform="translate(172,318)"/>
<path d="M0 0 C4.19984764 1.58237886 6.79085179 4.4808364 9.8828125 7.6640625 C10.54297363 8.33703369 11.20313477 9.01000488 11.88330078 9.70336914 C38.71026002 37.62563796 52.26840543 74.72951644 51.99023438 113.22143555 C51.62904281 130.76992795 47.3241654 146.77109498 34.40625 159.32421875 C21.55289451 170.23936984 5.49771132 174.35534437 -11.18066406 173.24609375 C-27.47087694 171.61012732 -41.69228385 164.73341117 -52.2421875 152.0390625 C-64.26271682 136.27996683 -63.94099435 116.16905643 -61.76953125 97.28515625 C-61.17343684 93.13843343 -60.27714478 89.09639503 -59.2421875 85.0390625 C-59.04882812 84.26433594 -58.85546875 83.48960937 -58.65625 82.69140625 C-53.15340103 61.25746984 -27.80267727 0.4843672 0 0 Z " fill="#3C7552" transform="translate(596.2421875,123.9609375)"/>
<path d="M0 0 C22.73559868 8.38754426 39.95859223 38.0406432 49.58154297 58.89453125 C57.57313422 76.72821684 61.64921481 95.11788593 61.73828125 114.66796875 C61.75890625 115.78429687 61.77953125 116.900625 61.80078125 118.05078125 C61.87147819 133.21527387 57.27772504 145.63890436 46.8046875 156.6640625 C34.789679 168.35488864 19.32459585 173.47038221 2.65283203 173.33959961 C-12.77924924 172.77987725 -27.80225228 167.33230456 -38.51171875 155.91796875 C-52.71601898 139.13376431 -53.77184954 117.67471755 -52.234375 96.6953125 C-49.20291698 63.03663042 -34.5466191 33.38262154 -11.51171875 8.91796875 C-10.7228125 8.04140625 -9.93390625 7.16484375 -9.12109375 6.26171875 C-7.95320312 5.00875 -7.95320312 5.00875 -6.76171875 3.73046875 C-6.065625 2.97378906 -5.36953125 2.21710938 -4.65234375 1.4375 C-2.51171875 -0.08203125 -2.51171875 -0.08203125 0 0 Z " fill="#3B7452" transform="translate(760.51171875,124.08203125)"/>
<path d="M0 0 C12.87381834 -0.28467903 25.78199008 1.14115162 38.0546875 5.1171875 C42.83007906 18.72190016 33.70104796 41.00585415 27.89453125 53.375 C16.7487399 76.31913295 -1.40265151 98.0056262 -25.80859375 107.1953125 C-39.31236441 111.16404211 -51.54270135 108.72675086 -63.60546875 102.1640625 C-74.54016673 95.46256339 -81.52376905 84.72357898 -85.25 72.58984375 C-87.91301585 59.28972525 -86.35548848 47.14419771 -79.3203125 35.4921875 C-64.6438772 15.02529758 -37.65810378 5.56557027 -13.9453125 1.1171875 C-9.27451283 0.37622633 -4.71540673 0.18761565 0 0 Z " fill="#3B7452" transform="translate(1300.9453125,146.8828125)"/>
<path d="M0 0 C8.25938289 7.20795838 14.42526374 15.60264032 16.8125 26.4375 C17.78957231 45.56556946 17.78957231 45.56556946 13.8125 54.4375 C13.48378906 55.17871094 13.15507812 55.91992188 12.81640625 56.68359375 C6.71596007 68.86337729 -3.67431528 77.95845467 -16.38671875 82.68359375 C-30.3308515 86.43703534 -42.29822051 83.71697361 -54.66796875 77.11328125 C-79.23472324 62.70707514 -97.31182342 36.00436335 -104.4375 8.75 C-106.64881714 -0.21787181 -107.42875105 -9.37764429 -108.1875 -18.5625 C-102.55718549 -21.29722419 -97.31081154 -22.43247705 -91.125 -23.25 C-90.19107422 -23.3752002 -89.25714844 -23.50040039 -88.29492188 -23.62939453 C-57.04126631 -27.59272042 -24.9621667 -19.46030138 0 0 Z " fill="#3B7452" transform="translate(124.1875,171.5625)"/>
<path d="M0 0 C0.48377991 1.85296835 0.96178636 3.70744441 1.4375 5.5625 C1.70433594 6.59503906 1.97117187 7.62757812 2.24609375 8.69140625 C9.39040716 40.04494748 2.16406697 71.8406084 -14 99 C-16.18096968 102.14978886 -18.52447329 105.07998969 -21 108 C-21.7425 109.03125 -22.485 110.0625 -23.25 111.125 C-30.41563624 118.61634698 -40.17446925 123.82442351 -50.61328125 124.43359375 C-52.17951136 124.45712011 -53.74622668 124.45794785 -55.3125 124.4375 C-56.14136719 124.42920166 -56.97023438 124.42090332 -57.82421875 124.41235352 C-71.61564737 124.03507631 -83.22364903 118.25247859 -92.8125 108.375 C-102.59710874 96.92156212 -104.99181126 84.52819827 -104 70 C-103.42811541 66.41845158 -102.44666592 63.32012599 -101 60 C-100.63261719 59.15566406 -100.26523438 58.31132813 -99.88671875 57.44140625 C-95.66182599 48.85452981 -89.38673483 42.01892432 -83 35 C-82.10667969 33.98099609 -82.10667969 33.98099609 -81.1953125 32.94140625 C-62.10553913 12.31851636 -28.08258438 -2.3187455 0 0 Z " fill="#3B7452" transform="translate(1227,52)"/>
<path d="M0 0 C5.63862313 0.63355316 9.04963195 4.65849169 13.12890625 8.3515625 C13.9590625 9.09921875 14.78921875 9.846875 15.64453125 10.6171875 C37.42952554 31.30608145 49.57061657 60.555175 51.12890625 90.3515625 C51.18175781 91.07214844 51.23460937 91.79273437 51.2890625 92.53515625 C51.73211678 103.0336164 49.16326318 113.72364242 43.12890625 122.3515625 C42.70996094 122.96386719 42.29101562 123.57617188 41.859375 124.20703125 C34.96110757 133.2125504 24.09076086 138.37022193 13.12890625 140.3515625 C-1.65880377 141.90476486 -15.79399215 139.55316372 -27.87109375 130.3515625 C-38.29624481 120.88528052 -42.40794096 107.91314953 -43.15625 94.12109375 C-44.0709962 64.60746107 -34.48416711 33.97256115 -14.30859375 12.0390625 C-12.50674766 10.13279676 -10.68837728 8.24318944 -8.87109375 6.3515625 C-8.2678125 5.66191406 -7.66453125 4.97226563 -7.04296875 4.26171875 C-4.75295072 1.70051438 -3.47322824 0.42529325 0 0 Z " fill="#3B7452" transform="translate(869.87109375,-0.3515625)"/>
<path d="M0 0 C2.34908963 1.59938018 4.04649616 2.99728951 6 5 C6.78310547 5.80244141 6.78310547 5.80244141 7.58203125 6.62109375 C29.53339291 30.52597237 41.15372134 61.5474758 40.22265625 93.96875 C39.57576713 107.90774767 35.46342153 119.95700761 25.19140625 129.71875 C13.23172671 139.46551586 -1.1362433 141.15302815 -16 140 C-28.49797449 137.79993238 -38.81597707 131.75831539 -46.34765625 121.53125 C-56.56607335 105.87750465 -54.87719968 86.82907206 -51.3125 69.25 C-45.5125144 42.87592275 -30.46295622 18.55230951 -9.1875 1.8125 C-5.61263551 -0.22026608 -4.02189177 -0.85572165 0 0 Z " fill="#3B7452" transform="translate(489,0)"/>
<path d="M0 0 C23.5215417 -1.94214565 51.07158994 8.57169507 69.4375 23 C70.97130162 24.31839463 72.49236994 25.65175544 74 27 C74.81597656 27.68578125 75.63195312 28.3715625 76.47265625 29.078125 C88.87740003 39.73815211 100.72700747 53.52019551 104 70 C105.05982039 85.42820508 102.34466522 96.98193305 92 109 C84.05862034 117.6031613 72.31940564 123.73597557 60.546875 124.3359375 C45.86372927 124.61550071 35.21276247 122.13711956 24 112 C4.65002512 91.29316713 -4.67021258 62.50463299 -4.375 34.5625 C-4.37200897 33.89077759 -4.36901794 33.21905518 -4.36593628 32.52697754 C-4.30749068 21.32340616 -3.5638999 10.69169969 0 0 Z " fill="#3B7452" transform="translate(129,52)"/>
<path d="M0 0 C0.77923828 0.00451172 1.55847656 0.00902344 2.36132812 0.01367188 C4.26175268 0.02533092 6.16213706 0.04326123 8.0625 0.0625 C13.98033182 24.68721791 10.02221911 51.88282443 -3.11279297 73.57910156 C-10.45921322 85.18070468 -19.9583866 97.66757246 -33.9375 101.0625 C-45.42243944 103.16340356 -56.08611772 101.44421305 -65.9375 95.0625 C-75.42410767 87.79498184 -81.71970895 79.95948764 -83.9375 68.0625 C-85.17559653 55.2405688 -81.78168411 45.19231706 -73.9375 35.0625 C-55.36326835 13.49517107 -28.74083689 -0.32016356 0 0 Z " fill="#3B7351" transform="translate(1167.9375,215.9375)"/>
<path d="M0 0 C9.79390994 3.48194983 16.75985624 20.0934799 21.05078125 28.94921875 C25.57664957 39.21521275 29.16635492 50.64274824 29.58203125 61.91796875 C29.63359375 63.15933594 29.68515625 64.40070313 29.73828125 65.6796875 C30.1861604 81.72528323 28.48828371 96.40324021 17.58203125 108.91796875 C15.03125 110.8671875 15.03125 110.8671875 12.26953125 112.60546875 C11.36589844 113.18683594 10.46226562 113.76820313 9.53125 114.3671875 C-0.02146494 119.39027072 -12.34433986 119.36223636 -22.78515625 117.23046875 C-25.48403035 116.31300447 -27.90413996 115.25839905 -30.41796875 113.91796875 C-31.61292969 113.28181641 -31.61292969 113.28181641 -32.83203125 112.6328125 C-40.1688537 108.22826524 -46.30992227 101.52664132 -48.91796875 93.24609375 C-53.57174482 71.57694894 -46.07657514 49.06484616 -34.61181641 30.73242188 C-31.58582115 26.13340414 -28.12124191 21.98026659 -24.41796875 17.91796875 C-23.77214844 17.20253906 -23.12632812 16.48710937 -22.4609375 15.75 C-7.2688093 -0.24659935 -7.2688093 -0.24659935 0 0 Z " fill="#3B7351" transform="translate(468.41796875,164.08203125)"/>
<path d="M0 0 C12.46176741 1.76449804 24.6556022 15.37964596 32 25 C44.88967789 42.8011294 53.68370394 64.53217317 51.75 86.890625 C50.20101875 95.90790871 46.05982798 104.06359523 39 110 C25.94553071 117.71062154 13.67798081 120.01909014 -1.34375 117.421875 C-10.55421618 114.51052075 -18.33464847 107.47888577 -23.04296875 99.09375 C-32.14563794 79.17933903 -28.96555218 53.91809808 -21.75488281 33.95947266 C-16.78931445 21.07019332 -9.12042521 10.26047836 0 0 Z " fill="#3B7451" transform="translate(886,164)"/>
<path d="M0 0 C26.77553052 -0.88487065 52.01044254 6.68895499 72 25 C73.31291016 26.19109375 73.31291016 26.19109375 74.65234375 27.40625 C84.80436544 37.05448715 91.84438691 47.62175097 92.4375 61.875 C92.07312233 73.70209179 87.42520006 82.3626471 79.34375 90.7109375 C71.23691647 98.24417432 61.21000257 101.90801118 50.2109375 102.03125 C36.88431012 101.28045409 28.70830216 95.31254261 19.875 85.68359375 C4.38459563 67.31899326 -2.0670487 45.56898716 -2.25 21.875 C-2.25950684 20.86099121 -2.26901367 19.84698242 -2.27880859 18.80224609 C-2.25026128 12.31143231 -1.52804236 6.30883091 0 0 Z " fill="#3B7351" transform="translate(180,216)"/>
<path d="M0 0 C0.66 0.33 1.32 0.66 2 1 C-5.59 8.59 -13.18 16.18 -21 24 C-21 20.45705078 -20.52369695 20.11736033 -18.18359375 17.63671875 C-17.58353516 16.99669922 -16.98347656 16.35667969 -16.36523438 15.69726562 C-15.72908203 15.03404297 -15.09292969 14.37082031 -14.4375 13.6875 C-13.82841797 13.03587891 -13.21933594 12.38425781 -12.59179688 11.71289062 C-8.61352913 7.50729329 -4.45396742 3.69730886 0 0 Z " fill="#1F3D2B" transform="translate(587,129)"/>
<path d="M0 0 C0.66 0.33 1.32 0.66 2 1 C-5.26 8.26 -12.52 15.52 -20 23 C-20 18.6571337 -17.34523917 16.73393822 -14.5 13.75 C-13.68547363 12.88145386 -13.68547363 12.88145386 -12.85449219 11.99536133 C-8.80100348 7.72074055 -4.58373768 3.70743489 0 0 Z " fill="#1F3E2C" transform="translate(1156,76)"/>
</svg>
